<svg width="44" height="50" viewBox="0 0 44 50" fill="none" xmlns="http://www.w3.org/2000/svg">
<path d="M31.725 31.3487C30.7809 31.3487 30.0156 30.5834 30.0156 29.6393V28.8993C30.0156 27.9552 30.7809 27.1899 31.725 27.1899C32.6692 27.1899 33.4344 27.9552 33.4344 28.8993V29.6393C33.4344 30.5834 32.6692 31.3487 31.725 31.3487Z" fill="#84C551"/>
<path d="M23.9948 34.1266H9.85784C8.91372 34.1266 8.14844 33.3613 8.14844 32.4172C8.14844 31.473 8.91372 30.7078 9.85784 30.7078H23.9948C24.9389 30.7078 25.7042 31.473 25.7042 32.4172C25.7042 33.3613 24.9389 34.1266 23.9948 34.1266Z" fill="#84C551"/>
<path d="M23.9948 42.1234H9.85784C8.91372 42.1234 8.14844 41.3581 8.14844 40.414C8.14844 39.4699 8.91372 38.7046 9.85784 38.7046H23.9948C24.9389 38.7046 25.7042 39.4699 25.7042 40.414C25.7042 41.3581 24.9389 42.1234 23.9948 42.1234Z" fill="#84C551"/>
<path d="M8.14937 24.5269C8.14937 25.471 8.91465 26.2363 9.85878 26.2363H23.9957C24.6713 26.2363 25.2535 25.8435 25.5311 25.2747C27.0524 25.8922 28.7143 26.2332 30.4548 26.2332C37.6922 26.2332 43.5802 20.3491 43.5802 13.1166C43.5803 5.88408 37.6923 0 30.4549 0C25.4492 0 21.0896 2.81517 18.8766 6.94401H3.6231C1.85579 6.94401 0.417969 8.38183 0.417969 10.1491V46.7948C0.417969 48.5621 1.85579 50 3.6231 50H30.2315C31.9988 50 33.4366 48.5621 33.4366 46.7948V34.7291C33.4366 33.785 32.6714 33.0197 31.7272 33.0197C30.7831 33.0197 30.0178 33.785 30.0178 34.7291V46.5812H3.83677V10.3628H17.6214C17.3076 11.8245 17.2468 13.3383 17.4401 14.8207H9.85878C8.91465 14.8207 8.14937 15.586 8.14937 16.5301C8.14937 17.4742 8.91465 18.2395 9.85878 18.2395H18.3722C19.1197 19.9934 20.2385 21.5524 21.6297 22.8176H9.85878C8.91465 22.8175 8.14937 23.5828 8.14937 24.5269ZM20.7482 13.1166C20.7482 7.76923 25.1026 3.4188 30.4549 3.4188C35.8073 3.4188 40.1615 7.76923 40.1615 13.1166C40.1615 18.4639 35.8072 22.8144 30.4549 22.8144C25.1027 22.8144 20.7482 18.464 20.7482 13.1166Z" fill="#84C551"/>
<path d="M34.1485 16.6851C33.8901 16.6851 33.6281 16.6263 33.3815 16.5023L29.6872 14.6436C29.1103 14.3533 28.7461 13.7626 28.7461 13.1166V6.05925C28.7461 5.11513 29.5114 4.34985 30.4555 4.34985C31.3996 4.34985 32.1649 5.11513 32.1649 6.05925V12.063L34.9181 13.4482C36.4851 14.2367 35.9086 16.6848 34.1485 16.6851C34.7739 16.685 33.8901 16.6851 34.1485 16.6851Z" fill="#84C551"/>
</svg>
