<svg width="181" height="40" viewBox="0 0 181 40" fill="none" xmlns="http://www.w3.org/2000/svg">
<path d="M47.824 26V14.8H52.384C53.5787 14.8 54.624 15.04 55.52 15.52C56.4267 15.9893 57.1307 16.6453 57.632 17.488C58.1333 18.3307 58.384 19.3013 58.384 20.4C58.384 21.4987 58.1333 22.4693 57.632 23.312C57.1307 24.1547 56.4267 24.816 55.52 25.296C54.624 25.7653 53.5787 26 52.384 26H47.824ZM49.008 24.976H52.32C53.312 24.976 54.1707 24.784 54.896 24.4C55.632 24.0053 56.2027 23.4667 56.608 22.784C57.0133 22.0907 57.216 21.296 57.216 20.4C57.216 19.4933 57.0133 18.6987 56.608 18.016C56.2027 17.3333 55.632 16.8 54.896 16.416C54.1707 16.0213 53.312 15.824 52.32 15.824H49.008V24.976ZM59.0945 26L64.2145 14.8H65.3825L70.5025 26H69.2545L64.5505 15.488H65.0305L60.3265 26H59.0945ZM61.1105 23.008L61.4625 22.048H67.9745L68.3265 23.008H61.1105ZM73.9688 26V15.824H70.0328V14.8H79.0888V15.824H75.1528V26H73.9688ZM87.24 29.2C86.1413 29.2 85.1387 29.0187 84.232 28.656C83.3253 28.304 82.5413 27.8027 81.88 27.152C81.2293 26.512 80.7227 25.7493 80.36 24.864C80.008 23.968 79.832 22.992 79.832 21.936C79.832 20.8693 80.008 19.8987 80.36 19.024C80.7227 18.1387 81.2347 17.376 81.896 16.736C82.568 16.0853 83.3627 15.584 84.28 15.232C85.1973 14.88 86.2053 14.704 87.304 14.704C88.392 14.704 89.384 14.8747 90.28 15.216C91.1867 15.5573 91.9707 16.0427 92.632 16.672C93.2933 17.2907 93.8 18.032 94.152 18.896C94.5147 19.76 94.696 20.7147 94.696 21.76C94.696 22.656 94.5893 23.4293 94.376 24.08C94.1733 24.72 93.8747 25.216 93.48 25.568C93.0853 25.9093 92.6107 26.08 92.056 26.08C91.512 26.08 91.0747 25.9147 90.744 25.584C90.4133 25.2533 90.248 24.7893 90.248 24.192V22.928L90.376 21.904L90.216 20.304V17.888H91.256V23.952C91.256 24.4 91.352 24.7147 91.544 24.896C91.736 25.0773 91.9707 25.168 92.248 25.168C92.5787 25.168 92.8667 25.0347 93.112 24.768C93.3573 24.5013 93.544 24.1173 93.672 23.616C93.8107 23.104 93.88 22.4907 93.88 21.776C93.88 20.8373 93.72 19.984 93.4 19.216C93.08 18.448 92.6267 17.7867 92.04 17.232C91.4533 16.6773 90.76 16.256 89.96 15.968C89.16 15.6693 88.2747 15.52 87.304 15.52C86.3333 15.52 85.4427 15.6747 84.632 15.984C83.8213 16.2933 83.1227 16.736 82.536 17.312C81.96 17.8773 81.512 18.5547 81.192 19.344C80.872 20.1227 80.712 20.9867 80.712 21.936C80.712 22.8853 80.8667 23.7547 81.176 24.544C81.496 25.3333 81.944 26.0107 82.52 26.576C83.096 27.152 83.784 27.5947 84.584 27.904C85.384 28.224 86.2693 28.384 87.24 28.384C87.72 28.384 88.232 28.3253 88.776 28.208C89.3307 28.0907 89.8427 27.9147 90.312 27.68L90.584 28.464C90.104 28.7093 89.56 28.8907 88.952 29.008C88.344 29.136 87.7733 29.2 87.24 29.2ZM87.048 26.08C86.2907 26.08 85.6133 25.904 85.016 25.552C84.4187 25.1893 83.944 24.6987 83.592 24.08C83.2507 23.4507 83.08 22.736 83.08 21.936C83.08 21.136 83.2507 20.4267 83.592 19.808C83.944 19.1893 84.4187 18.704 85.016 18.352C85.6133 18 86.2907 17.824 87.048 17.824C87.784 17.824 88.4347 17.9893 89 18.32C89.576 18.6507 90.024 19.1253 90.344 19.744C90.6747 20.352 90.84 21.0827 90.84 21.936C90.84 22.7893 90.6747 23.5253 90.344 24.144C90.024 24.7627 89.5813 25.2427 89.016 25.584C88.4507 25.9147 87.7947 26.08 87.048 26.08ZM87.192 25.152C87.768 25.152 88.2853 25.0187 88.744 24.752C89.2133 24.4853 89.576 24.112 89.832 23.632C90.0987 23.1413 90.232 22.576 90.232 21.936C90.232 21.2853 90.0987 20.7253 89.832 20.256C89.576 19.776 89.2133 19.408 88.744 19.152C88.2853 18.8853 87.768 18.752 87.192 18.752C86.5947 18.752 86.0667 18.8853 85.608 19.152C85.1493 19.408 84.7867 19.776 84.52 20.256C84.264 20.736 84.136 21.296 84.136 21.936C84.136 22.576 84.264 23.136 84.52 23.616C84.7867 24.096 85.1493 24.4747 85.608 24.752C86.0667 25.0187 86.5947 25.152 87.192 25.152ZM100.699 29.184C99.9313 29.184 99.1953 29.072 98.4913 28.848C97.7873 28.624 97.2166 28.304 96.7793 27.888L97.3553 27.024C97.7499 27.376 98.2353 27.6533 98.8113 27.856C99.3979 28.0693 100.017 28.176 100.667 28.176C101.734 28.176 102.518 27.9253 103.019 27.424C103.521 26.9333 103.771 26.1653 103.771 25.12V23.024L103.931 21.584L103.819 20.144V17.6H104.907V24.976C104.907 26.4267 104.55 27.488 103.835 28.16C103.131 28.8427 102.086 29.184 100.699 29.184ZM100.491 25.68C99.6913 25.68 98.9713 25.5093 98.3313 25.168C97.6913 24.816 97.1846 24.3307 96.8113 23.712C96.4486 23.0933 96.2673 22.384 96.2673 21.584C96.2673 20.784 96.4486 20.08 96.8113 19.472C97.1846 18.8533 97.6913 18.3733 98.3313 18.032C98.9713 17.6907 99.6913 17.52 100.491 17.52C101.238 17.52 101.91 17.6747 102.507 17.984C103.105 18.2933 103.579 18.752 103.931 19.36C104.283 19.968 104.459 20.7093 104.459 21.584C104.459 22.4587 104.283 23.2 103.931 23.808C103.579 24.416 103.105 24.88 102.507 25.2C101.91 25.52 101.238 25.68 100.491 25.68ZM100.603 24.672C101.222 24.672 101.771 24.544 102.251 24.288C102.731 24.0213 103.11 23.6587 103.387 23.2C103.665 22.7307 103.803 22.192 103.803 21.584C103.803 20.976 103.665 20.4427 103.387 19.984C103.11 19.5253 102.731 19.168 102.251 18.912C101.771 18.6453 101.222 18.512 100.603 18.512C99.9953 18.512 99.4459 18.6453 98.9553 18.912C98.4753 19.168 98.0966 19.5253 97.8193 19.984C97.5526 20.4427 97.4193 20.976 97.4193 21.584C97.4193 22.192 97.5526 22.7307 97.8193 23.2C98.0966 23.6587 98.4753 24.0213 98.9553 24.288C99.4459 24.544 99.9953 24.672 100.603 24.672ZM118.564 17.52C119.247 17.52 119.839 17.6533 120.34 17.92C120.852 18.176 121.247 18.5707 121.524 19.104C121.812 19.6373 121.956 20.3093 121.956 21.12V26H120.82V21.232C120.82 20.3467 120.607 19.68 120.18 19.232C119.764 18.7733 119.172 18.544 118.404 18.544C117.828 18.544 117.327 18.6667 116.9 18.912C116.484 19.1467 116.159 19.4933 115.924 19.952C115.7 20.4 115.588 20.944 115.588 21.584V26H114.452V21.232C114.452 20.3467 114.239 19.68 113.812 19.232C113.386 18.7733 112.788 18.544 112.02 18.544C111.455 18.544 110.959 18.6667 110.532 18.912C110.106 19.1467 109.775 19.4933 109.54 19.952C109.316 20.4 109.204 20.944 109.204 21.584V26H108.068V17.6H109.156V19.872L108.98 19.472C109.236 18.864 109.647 18.3893 110.212 18.048C110.788 17.696 111.466 17.52 112.244 17.52C113.066 17.52 113.764 17.728 114.34 18.144C114.916 18.5493 115.29 19.1627 115.46 19.984L115.012 19.808C115.258 19.1253 115.69 18.576 116.308 18.16C116.938 17.7333 117.69 17.52 118.564 17.52ZM130.301 26V24.144L130.253 23.84V20.736C130.253 20.0213 130.05 19.472 129.645 19.088C129.25 18.704 128.658 18.512 127.869 18.512C127.325 18.512 126.808 18.6027 126.317 18.784C125.826 18.9653 125.41 19.2053 125.069 19.504L124.557 18.656C124.984 18.2933 125.496 18.016 126.093 17.824C126.69 17.6213 127.32 17.52 127.981 17.52C129.069 17.52 129.906 17.792 130.493 18.336C131.09 18.8693 131.389 19.6853 131.389 20.784V26H130.301ZM127.405 26.08C126.776 26.08 126.226 25.9787 125.757 25.776C125.298 25.5627 124.946 25.2747 124.701 24.912C124.456 24.5387 124.333 24.112 124.333 23.632C124.333 23.1947 124.434 22.8 124.637 22.448C124.85 22.0853 125.192 21.7973 125.661 21.584C126.141 21.36 126.781 21.248 127.581 21.248H130.477V22.096H127.613C126.802 22.096 126.237 22.24 125.917 22.528C125.608 22.816 125.453 23.1733 125.453 23.6C125.453 24.08 125.64 24.464 126.013 24.752C126.386 25.04 126.909 25.184 127.581 25.184C128.221 25.184 128.77 25.04 129.229 24.752C129.698 24.4533 130.04 24.0267 130.253 23.472L130.509 24.256C130.296 24.8107 129.922 25.2533 129.389 25.584C128.866 25.9147 128.205 26.08 127.405 26.08ZM134.475 26V17.6H135.611V26H134.475ZM135.051 15.744C134.816 15.744 134.619 15.664 134.459 15.504C134.299 15.344 134.219 15.152 134.219 14.928C134.219 14.704 134.299 14.5173 134.459 14.368C134.619 14.208 134.816 14.128 135.051 14.128C135.285 14.128 135.483 14.2027 135.643 14.352C135.803 14.5013 135.883 14.688 135.883 14.912C135.883 15.1467 135.803 15.344 135.643 15.504C135.493 15.664 135.296 15.744 135.051 15.744ZM138.772 26V14.128H139.908V26H138.772ZM143.18 26.08C142.946 26.08 142.743 25.9947 142.572 25.824C142.412 25.6533 142.332 25.4453 142.332 25.2C142.332 24.944 142.412 24.736 142.572 24.576C142.743 24.416 142.946 24.336 143.18 24.336C143.415 24.336 143.612 24.416 143.772 24.576C143.943 24.736 144.028 24.944 144.028 25.2C144.028 25.4453 143.943 25.6533 143.772 25.824C143.612 25.9947 143.415 26.08 143.18 26.08ZM149.713 26.08C148.881 26.08 148.134 25.8987 147.473 25.536C146.822 25.1627 146.31 24.656 145.937 24.016C145.563 23.3653 145.377 22.624 145.377 21.792C145.377 20.9493 145.563 20.208 145.937 19.568C146.31 18.928 146.822 18.4267 147.473 18.064C148.134 17.7013 148.881 17.52 149.713 17.52C150.427 17.52 151.073 17.6587 151.649 17.936C152.225 18.2133 152.678 18.6293 153.009 19.184L152.161 19.76C151.873 19.3333 151.515 19.0187 151.089 18.816C150.662 18.6133 150.198 18.512 149.697 18.512C149.099 18.512 148.561 18.6507 148.081 18.928C147.601 19.1947 147.222 19.5733 146.945 20.064C146.667 20.5547 146.529 21.1307 146.529 21.792C146.529 22.4533 146.667 23.0293 146.945 23.52C147.222 24.0107 147.601 24.3947 148.081 24.672C148.561 24.9387 149.099 25.072 149.697 25.072C150.198 25.072 150.662 24.9707 151.089 24.768C151.515 24.5653 151.873 24.256 152.161 23.84L153.009 24.416C152.678 24.96 152.225 25.376 151.649 25.664C151.073 25.9413 150.427 26.08 149.713 26.08ZM158.524 26.08C157.713 26.08 156.982 25.8987 156.332 25.536C155.692 25.1627 155.185 24.656 154.812 24.016C154.438 23.3653 154.252 22.624 154.252 21.792C154.252 20.9493 154.438 20.208 154.812 19.568C155.185 18.928 155.692 18.4267 156.332 18.064C156.972 17.7013 157.702 17.52 158.524 17.52C159.356 17.52 160.092 17.7013 160.732 18.064C161.382 18.4267 161.889 18.928 162.252 19.568C162.625 20.208 162.812 20.9493 162.812 21.792C162.812 22.624 162.625 23.3653 162.252 24.016C161.889 24.656 161.382 25.1627 160.732 25.536C160.081 25.8987 159.345 26.08 158.524 26.08ZM158.524 25.072C159.132 25.072 159.67 24.9387 160.14 24.672C160.609 24.3947 160.977 24.0107 161.244 23.52C161.521 23.0187 161.66 22.4427 161.66 21.792C161.66 21.1307 161.521 20.5547 161.244 20.064C160.977 19.5733 160.609 19.1947 160.14 18.928C159.67 18.6507 159.137 18.512 158.54 18.512C157.942 18.512 157.409 18.6507 156.94 18.928C156.47 19.1947 156.097 19.5733 155.82 20.064C155.542 20.5547 155.404 21.1307 155.404 21.792C155.404 22.4427 155.542 23.0187 155.82 23.52C156.097 24.0107 156.47 24.3947 156.94 24.672C157.409 24.9387 157.937 25.072 158.524 25.072ZM175.627 17.52C176.31 17.52 176.902 17.6533 177.403 17.92C177.915 18.176 178.31 18.5707 178.587 19.104C178.875 19.6373 179.019 20.3093 179.019 21.12V26H177.883V21.232C177.883 20.3467 177.67 19.68 177.243 19.232C176.827 18.7733 176.235 18.544 175.467 18.544C174.891 18.544 174.39 18.6667 173.963 18.912C173.547 19.1467 173.222 19.4933 172.987 19.952C172.763 20.4 172.651 20.944 172.651 21.584V26H171.515V21.232C171.515 20.3467 171.302 19.68 170.875 19.232C170.448 18.7733 169.851 18.544 169.083 18.544C168.518 18.544 168.022 18.6667 167.595 18.912C167.168 19.1467 166.838 19.4933 166.603 19.952C166.379 20.4 166.267 20.944 166.267 21.584V26H165.131V17.6H166.219V19.872L166.043 19.472C166.299 18.864 166.71 18.3893 167.275 18.048C167.851 17.696 168.528 17.52 169.307 17.52C170.128 17.52 170.827 17.728 171.403 18.144C171.979 18.5493 172.352 19.1627 172.523 19.984L172.075 19.808C172.32 19.1253 172.752 18.576 173.371 18.16C174 17.7333 174.752 17.52 175.627 17.52Z" fill="black"/>
<g clip-path="url(#clip0_1472_6354)">
<path d="M12 14.375V25.625H28V14.375H12ZM26.3962 15.3125L20 21.6823L13.6038 15.3125H26.3962ZM12.9375 24.6875V15.9722L20 23.0054L27.0625 15.9722V24.6875H12.9375Z" fill="#8D3200" stroke="white" stroke-width="0.2"/>
</g>
<circle cx="20" cy="20" r="19.5" stroke="#8C3213"/>
<defs>
<clipPath id="clip0_1472_6354">
<rect width="16" height="16" fill="white" transform="translate(12 12)"/>
</clipPath>
</defs>
</svg>
